<?xml version="1.0" encoding="UTF-8"?>
<svg version="1.1" xmlns="http://www.w3.org/2000/svg" width="448" height="464">
<path d="M0 0 C1.0742775 -0.01007584 1.0742775 -0.01007584 2.17025757 -0.02035522 C4.52999889 -0.03929819 6.88945501 -0.04325808 9.24926758 -0.04541016 C10.8996848 -0.05184269 12.55010088 -0.05857139 14.20051575 -0.06558228 C17.65958292 -0.07754725 21.11855031 -0.08126411 24.57763672 -0.08007812 C28.98792114 -0.07987545 33.39755747 -0.10712767 37.80768871 -0.14162254 C41.21801123 -0.16397942 44.62818024 -0.16791293 48.0385685 -0.16685867 C49.66311174 -0.16920335 51.28765995 -0.17796231 52.91213036 -0.19352341 C70.03360198 -0.34212415 70.03360198 -0.34212415 77.70629883 4.29052734 C80.9728449 7.55707342 83.5008406 11.08620436 83.93676758 15.76318359 C83.92258789 16.61783203 83.9084082 17.47248047 83.89379883 18.35302734 C83.88413086 19.63886719 83.88413086 19.63886719 83.87426758 20.95068359 C83.70629883 23.29052734 83.70629883 23.29052734 82.70629883 26.29052734 C82.04629883 26.29052734 81.38629883 26.29052734 80.70629883 26.29052734 C80.61155273 26.89421143 80.51680664 27.49789551 80.41918945 28.11987305 C79.29927169 31.52986921 77.11896882 32.54371928 74.11254883 34.29589844 C69.8562519 36.05524845 65.73771945 35.8153907 61.20629883 35.60302734 C58.07129883 35.49990234 54.93629883 35.39677734 51.70629883 35.29052734 C51.70629883 43.21052734 51.70629883 51.13052734 51.70629883 59.29052734 C53.52129883 59.37302734 55.33629883 59.45552734 57.20629883 59.54052734 C83.0889162 61.61562343 106.48927708 74.14766496 124.21020508 92.94677734 C132.55533077 102.81579555 139.3050718 113.59703895 144.41723633 125.45068359 C146.88006575 130.87637144 149.06449145 133.84247223 154.01879883 137.22802734 C166.09432577 146.0434544 175.83724791 156.58132519 183.70629883 169.29052734 C184.40368164 170.37720703 185.10106445 171.46388672 185.81958008 172.58349609 C193.8844038 185.7818611 199.38156397 201.5517015 200.45629883 217.04052734 C200.55426758 218.31412109 200.65223633 219.58771484 200.75317383 220.89990234 C200.70807867 224.16178524 200.5833239 225.6821938 198.70629883 228.29052734 C195.61217894 230.35327393 194.95719456 230.5422095 191.45681 230.557827 C190.58532145 230.56652589 189.7138329 230.57522478 188.81593561 230.58418727 C187.85787437 230.58361677 186.89981313 230.58304628 185.91271973 230.5824585 C184.89546861 230.58966203 183.8782175 230.59686556 182.83014059 230.60428739 C179.40537732 230.62605725 175.98073019 230.63354373 172.5559082 230.64111328 C170.1071581 230.65367937 167.65841221 230.66709155 165.20967102 230.68128967 C159.23933762 230.71350105 153.26903529 230.73635171 147.29864848 230.75465479 C142.44746841 230.7697182 137.59631777 230.78864233 132.74516296 230.81034088 C132.05537065 230.81342271 131.36557834 230.81650454 130.65488324 230.81967975 C129.25369199 230.8259564 127.85250079 230.83224182 126.45130962 230.83853593 C113.30472366 230.89713026 100.15811612 230.94350731 87.01146883 230.98574057 C75.72495998 231.02228438 64.43853455 231.06932338 53.15209961 231.12402344 C40.05334396 231.1875022 26.95458673 231.24446224 13.85575914 231.29101205 C12.45965096 231.2959917 11.06354281 231.30097994 9.66743469 231.30597687 C8.98047834 231.30843243 8.29352198 231.31088799 7.58574876 231.31341796 C2.73900413 231.33119565 -2.10770592 231.35365915 -6.954422 231.37792206 C-13.47469933 231.41042464 -19.9949529 231.4322947 -26.51529884 231.44692802 C-28.91353938 231.45392937 -31.31177258 231.4643861 -33.70998192 231.47847939 C-36.97341533 231.49710451 -40.23664249 231.5034395 -43.50012207 231.50653076 C-44.45818331 231.51488315 -45.41624455 231.52323555 -46.40333796 231.53184104 C-47.2748265 231.53010894 -48.14631505 231.52837684 -49.04421234 231.52659225 C-50.17466862 231.53066184 -50.17466862 231.53066184 -51.3279624 231.53481364 C-53.29370117 231.29052734 -53.29370117 231.29052734 -56.29370117 229.29052734 C-53.85556164 209.82744795 -45.23613908 190.95207466 -32.29370117 176.29052734 C-31.58342773 175.44876953 -30.8731543 174.60701172 -30.14135742 173.73974609 C-25.04169896 167.83346327 -19.53528597 162.95824102 -13.29370117 158.29052734 C-12.57827148 157.72205078 -11.8628418 157.15357422 -11.12573242 156.56787109 C-9.29370117 155.29052734 -9.29370117 155.29052734 -7.29370117 155.29052734 C-7.18155273 154.75427734 -7.0694043 154.21802734 -6.95385742 153.66552734 C-1.8939557 133.55820547 13.8061444 114.37212974 30.78051758 103.02880859 C34.49697027 100.82076927 38.28928053 98.8083429 42.14379883 96.85302734 C42.84263184 96.49837402 43.54146484 96.1437207 44.26147461 95.77832031 C47.24928074 94.31099656 49.33437234 93.29052734 52.70629883 93.29052734 C52.70629883 92.63052734 52.70629883 91.97052734 52.70629883 91.29052734 C47.76624668 91.38590113 42.82658367 91.49233023 37.88696289 91.60791016 C36.21547529 91.64559367 34.54392309 91.68053689 32.87231445 91.71240234 C23.87449294 91.88585432 14.93045784 92.22774444 5.97583008 93.16162109 C5.25976593 93.2319455 4.54370178 93.3022699 3.80593872 93.37472534 C-13.42578858 95.34787801 -29.29253991 105.88701125 -40.44995117 118.78271484 C-47.25098 127.59789452 -51.96076763 137.63994307 -55.10620117 148.29052734 C-57.30110491 154.63136038 -61.76187738 156.94532416 -67.29370117 160.29052734 C-86.63834884 174.07116264 -97.75920555 191.94950182 -102.29370117 215.29052734 C-102.76862523 219.0094891 -103.21266839 222.7225308 -103.57104492 226.45458984 C-104.29370117 229.29052734 -104.29370117 229.29052734 -105.84448242 230.67724609 C-109.40896674 231.56978842 -112.89682668 231.53828005 -116.54370117 231.47802734 C-117.63231445 231.47706055 -117.63231445 231.47706055 -118.74291992 231.47607422 C-131.6709318 231.37237359 -131.6709318 231.37237359 -136.29370117 228.29052734 C-139.09225571 224.09269553 -138.8466536 221.19237586 -138.29370117 216.29052734 C-138.19831055 215.40365234 -138.10291992 214.51677734 -138.00463867 213.60302734 C-135.42881191 195.01666955 -127.93899104 176.04620446 -116.29370117 161.29052734 C-115.62854492 160.41267578 -114.96338867 159.53482422 -114.27807617 158.63037109 C-107.42374935 149.86521575 -99.68087329 141.73767941 -89.98120117 136.16552734 C-84.54904106 132.55850383 -83.07309452 127.86444384 -80.90136719 121.97924805 C-76.46828749 110.03072301 -69.15757615 100.39437187 -60.29370117 91.29052734 C-59.50092773 90.43587891 -58.7081543 89.58123047 -57.89135742 88.70068359 C-52.22647293 82.74942263 -46.42763854 78.33554338 -39.29370117 74.29052734 C-38.73553711 73.96310547 -38.17737305 73.63568359 -37.60229492 73.29833984 C-22.63482212 64.54812497 -6.78243041 59.29052734 10.70629883 59.29052734 C10.70629883 51.37052734 10.70629883 43.45052734 10.70629883 35.29052734 C6.28223633 35.44521484 6.28223633 35.44521484 1.76879883 35.60302734 C-5.53082442 35.69081075 -11.74289264 35.62471896 -17.29370117 30.29052734 C-20.62853014 26.66090686 -21.54956805 23.16579176 -21.79370117 18.29052734 C-21.5192263 12.06278705 -19.41504218 8.30308163 -14.85620117 3.97802734 C-9.87270491 0.69621273 -5.95687042 0.03517366 0 0 Z " fill="#020202" transform="translate(193.293701171875,74.70947265625)"/>
<path d="M0 0 C1.07828414 -0.00241442 2.15656828 -0.00482883 3.2675277 -0.00731641 C6.85143946 -0.01291558 10.43516996 -0.00431885 14.01907349 0.00431824 C16.60055591 0.0032444 19.18203809 0.00130421 21.76351929 -0.00143433 C28.03024823 -0.00645596 34.29692408 -0.00086004 40.56364642 0.00841597 C47.8739611 0.01884413 55.18426457 0.0187286 62.49458529 0.01824339 C75.54670448 0.01774358 88.5987991 0.02688165 101.65090942 0.04142761 C114.29153898 0.05550754 126.93214692 0.06259854 139.57278442 0.06193542 C140.35111106 0.06189547 141.12943769 0.06185551 141.93134998 0.06181435 C143.09689803 0.06175381 143.09689803 0.06175381 144.2859925 0.06169206 C158.70966566 0.06100047 173.1333297 0.06690301 187.55699988 0.07584528 C192.64207406 0.07884993 197.72714656 0.07992345 202.81222153 0.08037758 C209.66917922 0.08113485 216.52611398 0.08752076 223.38306427 0.09754372 C225.89320106 0.10045252 228.40334044 0.10169738 230.91347885 0.10111618 C277.20957128 0.09445589 277.20957128 0.09445589 294.42971802 16.24723816 C303.30810356 25.58287961 309.30805559 36.74591209 311.24221802 49.55973816 C310.69105517 52.52223844 309.77160514 54.11775074 307.57920039 56.18606889 C303.42001574 58.58870432 298.28012459 57.92911484 293.61921692 57.88647461 C292.37474362 57.89483029 291.13027032 57.90318596 289.8480857 57.91179484 C286.39429498 57.92995605 282.94183674 57.92573239 279.48811138 57.91210926 C275.76053447 57.90284778 272.03309562 57.92239382 268.30555725 57.93843079 C261.83684465 57.96230554 255.36832263 57.96786882 248.89957237 57.96108437 C239.49464133 57.95125131 230.08991931 57.96908427 220.68502209 57.99345168 C205.35699626 58.03240866 190.02903017 58.04900594 174.70095825 58.05168152 C159.93041853 58.05430689 145.15995025 58.06723464 130.38943481 58.09465027 C129.03420034 58.09716034 129.03420034 58.09716034 127.65158739 58.09972111 C123.11208413 58.10819147 118.57258127 58.11686101 114.03307855 58.12561381 C91.56257903 58.16871026 69.09207133 58.20554714 46.62153625 58.22302246 C45.82365965 58.22365035 45.02578305 58.22427825 44.20372837 58.22492517 C35.72378831 58.23140157 27.24385385 58.23542412 18.76391125 58.2348299 C15.87267748 58.23476657 12.98144373 58.23481939 10.09020996 58.23493958 C9.04265431 58.23493597 9.04265431 58.23493597 7.97393591 58.2349323 C-0.57242528 58.2355744 -9.11846131 58.25495797 -17.66472346 58.30071884 C-22.22834413 58.32495106 -26.79197944 58.34262819 -31.35563123 58.35985124 C-34.39052405 58.37443191 -37.42520277 58.39964353 -40.46001911 58.4252367 C-42.2491872 58.43210318 -44.03835754 58.43841663 -45.82752991 58.44406128 C-46.62028537 58.4542466 -47.41304083 58.46443191 -48.22981918 58.47492588 C-53.32160416 58.47502948 -57.25906726 58.10811049 -61.07028198 54.55973816 C-63.73813348 49.36444841 -62.26407436 44.75179573 -60.63278198 39.43473816 C-55.32823958 24.55976261 -45.48291833 12.91240068 -31.33981323 5.77458191 C-21.11402416 1.23713604 -11.11369782 -0.05795794 0 0 Z " fill="#020102" transform="translate(100.25778198242188,335.7527618408203)"/>
<path d="M0 0 C0.66 0.33 1.32 0.66 2 1 C1.34 1.66 0.68 2.32 0 3 C0 3.99 0 4.98 0 6 C-0.99 6.495 -0.99 6.495 -2 7 C-2.66 6.67 -3.32 6.34 -4 6 C-4.33 6.66 -4.66 7.32 -5 8 C-5.66 8.66 -6.32 9.32 -7 10 C-7.33 10.66 -7.66 11.32 -8 12 C-9.32 11.34 -10.64 10.68 -12 10 C-10.56458334 8.70601853 -9.12658648 7.41489889 -7.6875 6.125 C-6.88699219 5.40570313 -6.08648437 4.68640625 -5.26171875 3.9453125 C-3 2 -3 2 0 0 Z " fill="#171113" transform="translate(150,151)"/>
<path d="M0 0 C0 3 0 3 -1.37695312 4.7175293 C-2.00537109 5.33023682 -2.63378906 5.94294434 -3.28125 6.57421875 C-3.95800781 7.24130859 -4.63476562 7.90839844 -5.33203125 8.59570312 C-6.04746094 9.28599609 -6.76289063 9.97628906 -7.5 10.6875 C-8.57314453 11.7403418 -8.57314453 11.7403418 -9.66796875 12.81445312 C-11.43879577 14.54986361 -13.21623456 16.2779073 -15 18 C-15.66 17.67 -16.32 17.34 -17 17 C-15.29657414 15.09955869 -13.58752883 13.20471126 -11.875 11.3125 C-11.400625 10.78205078 -10.92625 10.25160156 -10.4375 9.70507812 C-7.18500869 6.12294242 -3.77952775 3.02250068 0 0 Z " fill="#1C1718" transform="translate(176,236)"/>
<path d="M0 0 C0 3.48354205 -0.45035158 3.88427053 -2.6875 6.375 C-3.2340625 6.98472656 -3.780625 7.59445313 -4.34375 8.22265625 C-7.40418608 11.50685063 -10.25547915 14.50365277 -14 17 C-10.9644742 10.28595525 -5.23214891 5.07359894 0 0 Z " fill="#271E20" transform="translate(137,162)"/>
<path d="M0 0 C-0.71027344 0.34933594 -1.42054688 0.69867188 -2.15234375 1.05859375 C-3.07144531 1.51363281 -3.99054688 1.96867188 -4.9375 2.4375 C-5.85402344 2.88996094 -6.77054688 3.34242188 -7.71484375 3.80859375 C-9.90528904 4.80525394 -9.90528904 4.80525394 -11 6 C-12.66617115 6.04063832 -14.33388095 6.042721 -16 6 C-13.10600531 3.65788337 -10.32844572 2.13137829 -6.875 0.75 C-6.00617188 0.39421875 -5.13734375 0.0384375 -4.2421875 -0.328125 C-2 -1 -2 -1 0 0 Z " fill="#2A2325" transform="translate(177,140)"/>
<path d="M0 0 C0.66 0.33 1.32 0.66 2 1 C1.01 2.98 0.02 4.96 -1 7 C-2.32 6.34 -3.64 5.68 -5 5 C-3.35 3.35 -1.7 1.7 0 0 Z " fill="#1E191A" transform="translate(143,156)"/>
<path d="M0 0 C0.6875 1.8125 0.6875 1.8125 1 4 C-0.375 5.5625 -0.375 5.5625 -2 7 C-2.33 7.99 -2.66 8.98 -3 10 C-3.66 10 -4.32 10 -5 10 C-3.66511872 6.40608886 -2.03977277 3.24509304 0 0 Z " fill="#261E21" transform="translate(122,179)"/>
<path d="M0 0 C0.33 0.66 0.66 1.32 1 2 C1.66 2.33 2.32 2.66 3 3 C2.01 3.66 1.02 4.32 0 5 C-0.72382467 7.05925139 -0.72382467 7.05925139 -1 9 C-1.66 8.67 -2.32 8.34 -3 8 C-1.125 2.25 -1.125 2.25 0 0 Z " fill="#211C1D" transform="translate(69,248)"/>
</svg>
